<svg width="24" height="24" viewBox="0 0 24 24" fill="none" xmlns="http://www.w3.org/2000/svg">
  <path d="M12 2C6.48 2 2 6.48 2 12s4.48 10 10 10 10-4.48 10-10S17.52 2 12 2z" fill="currentColor" opacity="0.2"/>
  <path d="M12 4c-4.41 0-8 3.59-8 8s3.59 8 8 8 8-3.59 8-8-3.59-8-8-8zm0 14c-3.31 0-6-2.69-6-6s2.69-6 6-6 6 2.69 6 6-2.69 6-6 6z" fill="currentColor"/>
  <circle cx="12" cy="12" r="3" fill="currentColor"/>
  <path d="M12 7v2M12 15v2M7 12h2M15 12h2" stroke="currentColor" stroke-width="1.5" stroke-linecap="round"/>
</svg>
